<svg width="45" height="45" viewBox="0 0 45 45" fill="none" xmlns="http://www.w3.org/2000/svg">
<rect width="45" height="45" rx="10" fill="#BDFFF7"/>
<g clip-path="url(#clip0)">
<path d="M15.9455 15.5C14.9435 15.5 14.018 16.001 13.4607 16.8358L11.375 19.9535C11.1295 20.3211 10.999 20.7535 11 21.1955V26.1642C10.9986 26.4972 11.1086 26.821 11.3124 27.0843C11.5163 27.3475 11.8023 27.535 12.125 27.617L14.0705 28.1097C14.2104 28.7838 14.5779 29.3892 15.1113 29.8245C15.6447 30.2597 16.3116 30.4982 17 30.5C18.389 30.5 19.5485 29.5393 19.883 28.25H26.867C27.2015 29.5393 28.361 30.5 29.75 30.5C31.139 30.5 32.2985 29.5393 32.633 28.25H33.5C34.3205 28.25 35 27.5705 35 26.75V24.008C34.9993 23.3395 34.7752 22.6904 34.3633 22.1638C33.9514 21.6373 33.3754 21.2634 32.7267 21.1017L28.6715 20.0705L25.742 16.5785C25.4618 16.2413 25.1107 15.9699 24.7139 15.7835C24.317 15.5971 23.884 15.5003 23.4455 15.5H15.9455ZM15.9455 17H19.25V20H13.1562L14.7035 17.6795V17.6562C14.8394 17.4522 15.0241 17.2852 15.2409 17.1706C15.4576 17.056 15.7003 16.9974 15.9455 17ZM20.75 17H23.4455C23.8902 17 24.3095 17.1965 24.5937 17.5392L26.6562 20H20.75V17ZM12.5 21.5H28.1562L32.375 22.5545C32.6987 22.6348 32.9859 22.822 33.19 23.0858C33.3942 23.3496 33.5034 23.6745 33.5 24.008V26.75H32.633C32.2985 25.4607 31.139 24.5 29.75 24.5C28.361 24.5 27.2015 25.4607 26.867 26.75H19.883C19.5485 25.4607 18.389 24.5 17 24.5C15.6702 24.5 14.5535 25.379 14.1642 26.5858L12.5 26.165V21.5ZM17 26C17.8377 26 18.5 26.6623 18.5 27.5C18.5 28.3377 17.8377 29 17 29C16.1622 29 15.5 28.3377 15.5 27.5C15.5 26.6623 16.1622 26 17 26ZM29.75 26C30.5877 26 31.25 26.6623 31.25 27.5C31.25 28.3377 30.5877 29 29.75 29C28.9122 29 28.25 28.3377 28.25 27.5C28.25 26.6623 28.9122 26 29.75 26Z" fill="#4E6EAB"/>
</g>
<defs>
<clipPath id="clip0">
<rect width="24" height="24" fill="white" transform="translate(11 11)"/>
</clipPath>
</defs>
</svg>
