<svg width="24" height="24" viewBox="0 0 24 24" fill="none" xmlns="http://www.w3.org/2000/svg">
<path fill-rule="evenodd" clip-rule="evenodd" d="M8.68342 22.2333V18.6555C8.6834 17.7454 9.42531 17.006 10.3445 16.9999H13.7116C14.6352 16.9999 15.3839 17.7411 15.3839 18.6555V22.2444C15.3837 23.0171 16.0066 23.6486 16.7869 23.6667H19.0316C21.2693 23.6667 23.0833 21.8708 23.0833 19.6555V9.47749C23.0714 8.60598 22.6581 7.78758 21.961 7.25522L14.284 1.13286C12.9391 0.0668375 11.0272 0.0668375 9.68233 1.13286L2.03903 7.26633C1.33931 7.79654 0.92529 8.61629 0.916672 9.4886V19.6555C0.916672 21.8708 2.73069 23.6667 4.9684 23.6667H7.21313C8.01275 23.6667 8.66098 23.0249 8.66098 22.2333" fill="#1A4297"/>
</svg>
