<svg width="45" height="45" viewBox="0 0 24 24" fill="none" xmlns="http://www.w3.org/2000/svg">
<path d="M3 18H21" stroke="#9D70FF" stroke-width="1.5" stroke-linecap="round" stroke-linejoin="round"/>
<path d="M4.5 20.25H19.5" stroke="#9D70FF" stroke-width="1.5" stroke-linecap="round" stroke-linejoin="round"/>
<rect x="-11" y="-11" width="45" height="45" rx="10" fill="#EAE9E9"/>
<path d="M2.25 15.75L21.75 15.75C22.1642 15.75 22.5 15.4142 22.5 15V4.5C22.5 4.08579 22.1642 3.75 21.75 3.75L2.25 3.75C1.83579 3.75 1.5 4.08579 1.5 4.5V15C1.5 15.4142 1.83579 15.75 2.25 15.75Z" stroke="#9D70FF" stroke-width="1.5" stroke-linejoin="round"/>
<path d="M12 13.5C14.0711 13.5 15.75 11.8211 15.75 9.75C15.75 7.67893 14.0711 6 12 6C9.92893 6 8.25 7.67893 8.25 9.75C8.25 11.8211 9.92893 13.5 12 13.5Z" stroke="#9D70FF" stroke-width="1.5" stroke-linecap="round" stroke-linejoin="round"/>
<path d="M22.5 12C21.5054 12 20.5516 12.3951 19.8483 13.0983C19.1451 13.8016 18.75 14.7554 18.75 15.75" stroke="#9D70FF" stroke-width="1.5" stroke-linecap="round" stroke-linejoin="round"/>
<path d="M1.5 12C1.99246 12 2.48009 12.097 2.93506 12.2855C3.39003 12.4739 3.80343 12.7501 4.15165 13.0983C4.49987 13.4466 4.77609 13.86 4.96455 14.3149C5.153 14.7699 5.25 15.2575 5.25 15.75" stroke="#9D70FF" stroke-width="1.5" stroke-linecap="round" stroke-linejoin="round"/>
</svg>
