<svg width="55" height="55" viewBox="0 0 70 71" fill="none" xmlns="http://www.w3.org/2000/svg">
<circle cx="35" cy="35.5" r="35" fill="#1A4297"/>
<path fill-rule="evenodd" clip-rule="evenodd" d="M35 29.125C35.2321 29.125 35.4546 29.2172 35.6187 29.3813C35.7828 29.5454 35.875 29.7679 35.875 30V37C35.875 37.2321 35.7828 37.4546 35.6187 37.6187C35.4546 37.7828 35.2321 37.875 35 37.875H28C27.7679 37.875 27.5454 37.7828 27.3813 37.6187C27.2172 37.4546 27.125 37.2321 27.125 37C27.125 36.7679 27.2172 36.5454 27.3813 36.3813C27.5454 36.2172 27.7679 36.125 28 36.125H34.125V30C34.125 29.7679 34.2172 29.5454 34.3813 29.3813C34.5454 29.2172 34.7679 29.125 35 29.125Z" fill="white"/>
<path fill-rule="evenodd" clip-rule="evenodd" d="M34.125 37C34.125 36.7679 34.2172 36.5454 34.3813 36.3813C34.5454 36.2172 34.7679 36.125 35 36.125H42C42.2321 36.125 42.4546 36.2172 42.6187 36.3813C42.7828 36.5454 42.875 36.7679 42.875 37C42.875 37.2321 42.7828 37.4546 42.6187 37.6187C42.4546 37.7828 42.2321 37.875 42 37.875H35.875V44C35.875 44.2321 35.7828 44.4546 35.6187 44.6187C35.4546 44.7828 35.2321 44.875 35 44.875C34.7679 44.875 34.5454 44.7828 34.3813 44.6187C34.2172 44.4546 34.125 44.2321 34.125 44V37Z" fill="white"/>
</svg>
