<svg width="45" height="45" viewBox="0 0 45 45" fill="none" xmlns="http://www.w3.org/2000/svg">
<rect width="45" height="45" rx="10" fill="#FFD89D"/>
<g clip-path="url(#clip0)">
<path d="M34.5804 19.422L34.1727 18.5214C33.4921 17.0181 32.5298 15.692 31.313 14.5793C30.9559 14.2523 30.4402 14.1701 29.9991 14.3698C29.51 14.5912 29.2236 15.1169 29.302 15.6478L29.4114 16.3878C29.511 17.0621 29.1471 17.7299 28.5257 18.0112C28.122 18.194 27.6598 18.1933 27.2569 18.0103L26.0573 17.4647L25.9557 16.482C25.9408 16.3468 25.9055 16.2162 25.8498 16.0931L25.7883 15.9574C25.5022 15.3254 24.7553 15.044 24.1234 15.3301C23.8769 15.4417 23.6694 15.6338 23.5399 15.8705L22.7957 17.2255C22.6917 17.2624 22.588 17.3 22.4868 17.3458C21.7847 17.6636 21.1921 18.1737 20.773 18.821L19.4363 20.8871C18.4124 22.469 17.1047 23.8106 15.5494 24.8737L13.835 26.0463C12.8722 26.7044 12.5228 27.9534 13.0036 29.0155C13.4181 29.931 14.37 30.4944 15.3717 30.4178C17.4824 30.2568 19.5301 29.7322 21.4584 28.8592L35.1889 22.6432C35.7721 22.3792 36.0319 21.6896 35.7679 21.1064L35.6459 20.8369C35.4007 20.2953 35.0335 19.808 34.5804 19.422ZM26.9363 18.7146C27.5422 18.9906 28.2381 18.9912 28.845 18.7165C29.7792 18.2936 30.3274 17.2895 30.1772 16.2744L30.0678 15.5344C30.0395 15.3432 30.1428 15.1546 30.3184 15.0751C30.4767 15.0034 30.6622 15.0329 30.7907 15.1506C31.9298 16.1923 32.8304 17.4336 33.4674 18.8407L33.7691 19.5072C32.9879 19.9675 30.7178 21.268 27.9168 22.5361C27.8614 22.5611 27.8139 22.5848 27.7601 22.6095L24.1366 20.2409C24.609 19.532 24.8343 18.6809 24.7638 17.826C25.009 17.8739 25.2504 17.9482 25.4821 18.0536L26.9363 18.7146ZM22.6901 21.7303L23.5647 20.9205C23.5916 20.8955 23.6135 20.8669 23.6393 20.8412L26.9448 23.002C26.502 23.2254 26.1097 23.4392 25.7601 23.645L22.6901 21.7303ZM25.0242 24.0984C24.7024 24.3057 24.4027 24.5081 24.1094 24.7076C23.9981 24.7839 23.8873 24.8591 23.7756 24.9343L21.13 23.1742L22.101 22.2753L25.0242 24.0984ZM24.2185 16.2432C24.2686 16.1521 24.3478 16.0784 24.4427 16.0354C24.6857 15.9254 24.9731 16.0337 25.083 16.2767L25.1445 16.4124C25.1661 16.46 25.1801 16.5106 25.1855 16.5621L25.2462 17.1495C24.774 17.014 24.2844 16.965 23.7989 17.0067L24.2185 16.2432ZM20.0864 21.3075L21.4231 19.2415C21.7612 18.7192 22.2398 18.3075 22.8061 18.0511C23.1796 17.882 23.5777 17.7918 23.9782 17.7716C24.0952 18.7257 23.7531 19.6913 23.0389 20.3524L19.4877 23.6398C18.9886 24.102 18.335 24.375 17.6557 24.4054L17.3937 24.417C18.4273 23.5126 19.3315 22.4736 20.0864 21.3075ZM14.272 26.6851L15.9865 25.5125C16.1163 25.424 16.2412 25.33 16.3678 25.2379L17.6902 25.1789C18.1574 25.1578 18.6102 25.0496 19.0362 24.8568C19.3952 24.6942 19.7236 24.4763 20.0132 24.2084L20.5459 23.7153L23.0718 25.3957C22.4661 25.7774 21.7767 26.1656 20.8306 26.5939C18.2411 27.7662 14.6792 28.2021 13.5955 28.3125C13.4838 27.695 13.7331 27.0536 14.272 26.6851ZM35.0626 21.4256C35.1507 21.6203 35.0642 21.8498 34.8696 21.9379L21.1391 28.1539C19.2934 28.9895 17.3328 29.4917 15.3127 29.6465C14.7788 29.6872 14.2688 29.4571 13.9377 29.0562C15.2909 28.9085 18.6091 28.4495 21.1499 27.2992C22.7255 26.5859 23.6503 25.9565 24.5448 25.3476C25.4851 24.7082 26.457 24.0468 28.2361 23.2414C31.1351 21.9289 33.4746 20.5808 34.2164 20.1422C34.5183 20.4317 34.7683 20.7757 34.9406 21.1562L35.0626 21.4256Z" fill="#FF6E4F"/>
<path d="M22.8272 19.7412C23.022 19.653 23.1084 19.4237 23.0202 19.2289C22.932 19.0341 22.7027 18.9477 22.5079 19.0359C22.3132 19.1241 22.2268 19.3534 22.3149 19.5482C22.4031 19.7429 22.6325 19.8294 22.8272 19.7412Z" fill="#FF6E4F"/>
<path d="M21.3834 21.2447C21.5781 21.1565 21.6645 20.9271 21.5764 20.7324C21.4882 20.5376 21.2588 20.4512 21.0641 20.5394C20.8693 20.6276 20.7829 20.8569 20.8711 21.0517C20.9592 21.2464 21.1886 21.3328 21.3834 21.2447Z" fill="#FF6E4F"/>
</g>
<defs>
<clipPath id="clip0">
<rect width="24" height="24" fill="white" transform="translate(7.11903 16.0171) rotate(-24.357)"/>
</clipPath>
</defs>
</svg>
